<mxfile host="app.diagrams.net" modified="2023-05-23T05:07:53.269Z" agent="Mozilla/5.0 (Windows NT 10.0; Win64; x64) AppleWebKit/537.36 (KHTML, like Gecko) Chrome/107.0.0.0 Safari/537.36" etag="_tGkLkxdHGnAhdU8MTO8" version="21.3.2" type="device">
  <diagram name="Page-1" id="JIFAZ_yM3_qrb3XeM6my">
    <mxGraphModel dx="1434" dy="764" grid="1" gridSize="10" guides="1" tooltips="1" connect="1" arrows="1" fold="1" page="1" pageScale="1" pageWidth="850" pageHeight="1100" math="0" shadow="0">
      <root>
        <mxCell id="0" />
        <mxCell id="1" parent="0" />
        <mxCell id="CWnnxIauo_4ElNMmTtTs-8" value="Actor" style="shape=umlActor;verticalLabelPosition=bottom;verticalAlign=top;html=1;outlineConnect=0;" vertex="1" parent="1">
          <mxGeometry x="50" y="280" width="60" height="120" as="geometry" />
        </mxCell>
        <mxCell id="CWnnxIauo_4ElNMmTtTs-11" value="" style="endArrow=none;html=1;rounded=0;" edge="1" parent="1" target="CWnnxIauo_4ElNMmTtTs-12">
          <mxGeometry width="50" height="50" relative="1" as="geometry">
            <mxPoint x="140" y="270" as="sourcePoint" />
            <mxPoint x="290" y="200" as="targetPoint" />
          </mxGeometry>
        </mxCell>
        <mxCell id="CWnnxIauo_4ElNMmTtTs-12" value="注册" style="ellipse;whiteSpace=wrap;html=1;" vertex="1" parent="1">
          <mxGeometry x="320" y="140" width="120" height="80" as="geometry" />
        </mxCell>
        <mxCell id="CWnnxIauo_4ElNMmTtTs-14" value="" style="endArrow=none;html=1;rounded=0;" edge="1" parent="1" target="CWnnxIauo_4ElNMmTtTs-15">
          <mxGeometry width="50" height="50" relative="1" as="geometry">
            <mxPoint x="140" y="320" as="sourcePoint" />
            <mxPoint x="340" y="320" as="targetPoint" />
          </mxGeometry>
        </mxCell>
        <mxCell id="CWnnxIauo_4ElNMmTtTs-15" value="登录" style="ellipse;whiteSpace=wrap;html=1;" vertex="1" parent="1">
          <mxGeometry x="330" y="230" width="120" height="80" as="geometry" />
        </mxCell>
        <mxCell id="CWnnxIauo_4ElNMmTtTs-21" value="Actor" style="shape=umlActor;verticalLabelPosition=bottom;verticalAlign=top;html=1;outlineConnect=0;" vertex="1" parent="1">
          <mxGeometry x="52.5" y="710" width="55" height="100" as="geometry" />
        </mxCell>
        <mxCell id="CWnnxIauo_4ElNMmTtTs-22" value="" style="endArrow=none;html=1;rounded=0;" edge="1" parent="1" target="CWnnxIauo_4ElNMmTtTs-23">
          <mxGeometry width="50" height="50" relative="1" as="geometry">
            <mxPoint x="110" y="720" as="sourcePoint" />
            <mxPoint x="200" y="710" as="targetPoint" />
          </mxGeometry>
        </mxCell>
        <mxCell id="CWnnxIauo_4ElNMmTtTs-23" value="编辑博客" style="ellipse;whiteSpace=wrap;html=1;" vertex="1" parent="1">
          <mxGeometry x="220" y="660" width="120" height="80" as="geometry" />
        </mxCell>
        <mxCell id="CWnnxIauo_4ElNMmTtTs-24" value="" style="endArrow=none;html=1;rounded=0;" edge="1" parent="1" target="CWnnxIauo_4ElNMmTtTs-25">
          <mxGeometry width="50" height="50" relative="1" as="geometry">
            <mxPoint x="130" y="360" as="sourcePoint" />
            <mxPoint x="330" y="400" as="targetPoint" />
          </mxGeometry>
        </mxCell>
        <mxCell id="CWnnxIauo_4ElNMmTtTs-25" value="新增博客" style="ellipse;whiteSpace=wrap;html=1;" vertex="1" parent="1">
          <mxGeometry x="330" y="310" width="120" height="80" as="geometry" />
        </mxCell>
        <mxCell id="CWnnxIauo_4ElNMmTtTs-26" value="" style="endArrow=none;html=1;rounded=0;" edge="1" parent="1" target="CWnnxIauo_4ElNMmTtTs-27">
          <mxGeometry width="50" height="50" relative="1" as="geometry">
            <mxPoint x="130" y="400" as="sourcePoint" />
            <mxPoint x="300" y="510" as="targetPoint" />
          </mxGeometry>
        </mxCell>
        <mxCell id="CWnnxIauo_4ElNMmTtTs-27" value="编辑博客" style="ellipse;whiteSpace=wrap;html=1;" vertex="1" parent="1">
          <mxGeometry x="330" y="390" width="120" height="80" as="geometry" />
        </mxCell>
        <mxCell id="CWnnxIauo_4ElNMmTtTs-30" value="" style="endArrow=none;html=1;rounded=0;" edge="1" parent="1" target="CWnnxIauo_4ElNMmTtTs-31">
          <mxGeometry width="50" height="50" relative="1" as="geometry">
            <mxPoint x="120" y="430" as="sourcePoint" />
            <mxPoint x="290" y="520" as="targetPoint" />
          </mxGeometry>
        </mxCell>
        <mxCell id="CWnnxIauo_4ElNMmTtTs-31" value="删除博客" style="ellipse;whiteSpace=wrap;html=1;" vertex="1" parent="1">
          <mxGeometry x="340" y="480" width="120" height="80" as="geometry" />
        </mxCell>
      </root>
    </mxGraphModel>
  </diagram>
</mxfile>
